<?xml version="1.0" encoding="utf-8"?>
<!-- Generator: Adobe Illustrator 15.1.0, SVG Export Plug-In . SVG Version: 6.00 Build 0)  -->
<!DOCTYPE svg PUBLIC "-//W3C//DTD SVG 1.1//EN" "http://www.w3.org/Graphics/SVG/1.1/DTD/svg11.dtd">
<svg version="1.1" id="Layer_1" xmlns="http://www.w3.org/2000/svg" xmlns:xlink="http://www.w3.org/1999/xlink" x="0px" y="0px"
	 width="89.83px" height="14.672px" viewBox="0 0 89.83 14.672" enable-background="new 0 0 89.83 14.672" xml:space="preserve">
<path fill="#F08200" d="M0,14.411v-2.617l5.582-8.439H0.194V0h10.431v2.595l-5.606,8.462h5.755v3.354H0z"/>
<path fill="#F08200" d="M18.197,11.901c1.428,0,2.078-0.325,2.638-0.563l1.149,2.34c-0.823,0.431-1.841,0.993-4.199,0.993
	c-3.745,0-5.994-2.078-5.994-5.626c0-3.549,2.575-5.561,5.627-5.561c3.677,0,5.325,2.401,4.935,6.815H15.97
	C16.185,11.359,16.898,11.901,18.197,11.901z M18.652,7.791c-0.023-0.974-0.347-1.666-1.278-1.666c-0.887,0-1.363,0.519-1.536,1.666
	H18.652z"/>
<path fill="#F08200" d="M37.194,3.484c2.318,0,3.076,1.515,3.076,3.549v7.378h-3.896V7.855c0-0.866-0.215-1.191-0.886-1.191
	c-0.608,0-0.998,0.434-1.342,0.867v6.88H30.25V7.855c0-0.866-0.302-1.191-0.886-1.191c-0.737,0-1.125,0.563-1.341,0.823v6.923
	h-3.896V3.743h3.809v1.19c0.585-0.671,1.492-1.45,3.14-1.45c1.47,0,2.314,0.605,2.724,1.601C34.751,4.004,35.682,3.484,37.194,3.484
	z"/>
<path fill="#F08200" d="M48.253,14.411c-0.108-0.259-0.194-0.713-0.217-1.038c-0.454,0.562-1.383,1.299-2.835,1.299
	c-1.838,0-3.333-1.06-3.333-3.116c0-2.727,2.687-3.853,5.672-3.853h0.302V7.378c0-0.605-0.281-0.93-1.428-0.93
	c-1.276,0-2.273,0.65-2.662,0.909l-1.557-2.293c0.712-0.627,2.315-1.58,4.716-1.58c3.375,0,4.804,1.146,4.804,4.262v2.965
	c0,1.71,0.173,2.901,0.347,3.699L48.253,14.411L48.253,14.411z M47.843,9.954H47.54c-1.233,0-2.056,0.389-2.056,1.233
	c0,0.52,0.389,0.823,1.06,0.823c0.67,0,1.038-0.282,1.299-0.496V9.954L47.843,9.954z"/>
<path fill="#F08200" d="M60.284,14.411V7.855c0-0.866-0.302-1.191-1.06-1.191c-0.737,0-1.3,0.606-1.515,0.867v6.88h-3.896V3.743
	h3.81v1.21c0.629-0.691,1.623-1.47,3.312-1.47c2.402,0,3.246,1.515,3.246,3.549v7.378H60.284z"/>
<path fill="#F08200" d="M65.563,6.578V3.743h1.644V0.648h3.876v3.095h2.356v2.835h-2.356v3.506c0,1.037,0.236,1.449,0.931,1.449
	c0.625,0,1.122-0.216,1.362-0.325l0.757,2.879c-0.541,0.26-1.535,0.584-3.008,0.584c-3.073,0-3.918-1.493-3.918-3.722V6.578H65.563z
	"/>
<path fill="#F08200" d="M81.188,14.411c-0.11-0.259-0.198-0.713-0.219-1.038c-0.452,0.562-1.383,1.299-2.833,1.299
	c-1.842,0-3.333-1.06-3.333-3.116c0-2.727,2.685-3.853,5.669-3.853h0.303V7.378c0-0.605-0.282-0.93-1.429-0.93
	c-1.275,0-2.27,0.65-2.658,0.909l-1.561-2.293c0.716-0.627,2.318-1.58,4.72-1.58c3.374,0,4.804,1.146,4.804,4.262v2.965
	c0,1.71,0.172,2.901,0.347,3.699L81.188,14.411L81.188,14.411z M80.775,9.954h-0.302c-1.234,0-2.055,0.389-2.055,1.233
	c0,0.52,0.39,0.823,1.062,0.823c0.67,0,1.037-0.282,1.296-0.496L80.775,9.954L80.775,9.954z"/>
<g>
	<path fill="#F08200" d="M86.932,0.315v1.486h-0.385V0.315h-0.496V0h1.376v0.315H86.932z"/>
	<path fill="#F08200" d="M88.535,1.801L88.23,0.868c-0.037-0.114-0.073-0.255-0.073-0.258h-0.004c0,0.003-0.01,0.145-0.027,0.265
		l-0.112,0.926h-0.346L87.916,0h0.371l0.364,1.112c0.042,0.132,0.089,0.308,0.089,0.312h0.006c0-0.003,0.052-0.18,0.096-0.312
		L89.213,0h0.368l0.249,1.801h-0.391l-0.113-0.929c-0.017-0.126-0.03-0.262-0.03-0.262H89.29c0,0-0.033,0.135-0.075,0.255
		l-0.306,0.936H88.535z"/>
</g>
</svg>
