<?xml version="1.0" encoding="utf-8"?>
<!-- Generator: Adobe Illustrator 15.0.0, SVG Export Plug-In . SVG Version: 6.00 Build 0)  -->
<!DOCTYPE svg PUBLIC "-//W3C//DTD SVG 1.1//EN" "http://www.w3.org/Graphics/SVG/1.1/DTD/svg11.dtd">
<svg version="1.1" id="Layer_1" xmlns="http://www.w3.org/2000/svg" xmlns:xlink="http://www.w3.org/1999/xlink" x="0px" y="0px"
	 width="179.576px" height="28.809px" viewBox="0 0 179.576 28.809" enable-background="new 0 0 179.576 28.809"
	 xml:space="preserve">
<path fill="#F08200" d="M0,28.809v-5.233l11.158-16.87H0.388V0h20.852v5.189L10.033,22.105h11.505v6.704H0z"/>
<path fill="#F08200" d="M36.378,23.792c2.854,0,4.154-0.65,5.274-1.126l2.297,4.676c-1.646,0.861-3.681,1.986-8.393,1.986
	c-7.487,0-11.983-4.155-11.983-11.247c0-7.094,5.147-11.116,11.249-11.116c7.35,0,10.644,4.8,9.865,13.623H31.925
	C32.355,22.708,33.78,23.792,36.378,23.792z M37.286,15.574c-0.047-1.948-0.693-3.331-2.555-3.331c-1.772,0-2.723,1.038-3.07,3.331
	H37.286z"/>
<path fill="#F08200" d="M74.353,6.965c4.635,0,6.148,3.028,6.148,7.094v14.75h-7.787V15.703c0-1.731-0.431-2.38-1.772-2.38
	c-1.214,0-1.994,0.868-2.682,1.733v13.754h-7.788V15.703c0-1.731-0.605-2.38-1.772-2.38c-1.473,0-2.25,1.125-2.682,1.646v13.84
	H48.23V7.483h7.613v2.38c1.169-1.341,2.983-2.898,6.276-2.898c2.938,0,4.627,1.209,5.447,3.199
	C69.469,8.004,71.33,6.965,74.353,6.965z"/>
<path fill="#F08200" d="M96.461,28.809c-0.217-0.517-0.389-1.426-0.432-2.074c-0.91,1.124-2.766,2.594-5.668,2.594
	c-3.676,0-6.664-2.117-6.664-6.229c0-5.449,5.37-7.7,11.338-7.7h0.605V14.75c0-1.21-0.563-1.859-2.855-1.859
	c-2.551,0-4.544,1.299-5.322,1.816l-3.113-4.584c1.425-1.254,4.627-3.158,9.428-3.158c6.747,0,9.603,2.292,9.603,8.521v5.926
	c0,3.419,0.347,5.799,0.693,7.396H96.461z M95.641,19.899h-0.605c-2.466,0-4.111,0.777-4.111,2.465c0,1.039,0.778,1.646,2.119,1.646
	c1.34,0,2.076-0.564,2.598-0.992V19.899z"/>
<path fill="#F08200" d="M120.512,28.809V15.703c0-1.731-0.604-2.38-2.119-2.38c-1.473,0-2.598,1.211-3.027,1.733v13.754h-7.789
	V7.483h7.615v2.42c1.258-1.382,3.244-2.938,6.619-2.938c4.803,0,6.49,3.028,6.49,7.094v14.75H120.512z"/>
<path fill="#F08200" d="M131.065,13.151V7.483h3.286V1.295h7.747v6.188h4.712v5.668h-4.712v7.007c0,2.074,0.473,2.897,1.862,2.897
	c1.25,0,2.242-0.431,2.723-0.65l1.514,5.756c-1.083,0.52-3.07,1.167-6.015,1.167c-6.143,0-7.831-2.984-7.831-7.439v-8.738H131.065z"
	/>
<path fill="#F08200" d="M162.301,28.809c-0.22-0.517-0.395-1.426-0.437-2.074c-0.905,1.124-2.765,2.594-5.663,2.594
	c-3.682,0-6.663-2.117-6.663-6.229c0-5.449,5.365-7.7,11.332-7.7h0.605V14.75c0-1.21-0.564-1.859-2.856-1.859
	c-2.55,0-4.537,1.299-5.314,1.816l-3.119-4.584c1.431-1.254,4.633-3.158,9.434-3.158c6.746,0,9.603,2.292,9.603,8.521v5.926
	c0,3.419,0.345,5.799,0.694,7.396H162.301z M161.476,19.899h-0.605c-2.466,0-4.106,0.777-4.106,2.465
	c0,1.039,0.778,1.646,2.121,1.646c1.34,0,2.074-0.564,2.591-0.992V19.899z"/>
<g>
	<path fill="#F08200" d="M173.781,0.63V3.6h-0.768V0.63h-0.992V0h2.752v0.63H173.781z"/>
	<path fill="#F08200" d="M176.988,3.6l-0.61-1.865c-0.075-0.229-0.147-0.51-0.147-0.516h-0.008c0,0.006-0.018,0.29-0.054,0.53
		L175.944,3.6h-0.69L175.75,0h0.742l0.727,2.224c0.084,0.264,0.178,0.616,0.178,0.623h0.013c0-0.007,0.102-0.359,0.19-0.623
		L178.342,0h0.736l0.498,3.6h-0.781l-0.225-1.857c-0.035-0.253-0.062-0.523-0.062-0.523h-0.011c0,0-0.067,0.27-0.15,0.51
		L177.736,3.6H176.988z"/>
</g>
</svg>
